<svg width="25" height="25" viewBox="0 0 25 25" fill="none" xmlns="http://www.w3.org/2000/svg">
<g clip-path="url(#clip0_348_23)">
<path d="M8.30098 3.65413L1.01556 13.5895C0.447314 14.3656 0.105051 15.2838 0.0267079 16.2424C-0.0516353 17.201 0.137002 18.1626 0.571709 19.0206C1.00642 19.8786 1.67021 20.5994 2.48952 21.1033C3.30883 21.6071 4.25165 21.8742 5.21348 21.875H19.7916C20.7544 21.8765 21.6987 21.6108 22.5194 21.1074C23.3401 20.6041 24.005 19.8829 24.4401 19.024C24.8753 18.1652 25.0635 17.2025 24.984 16.243C24.9044 15.2835 24.5602 14.365 23.9895 13.5895L16.7041 3.65413C16.2203 2.99488 15.5881 2.45881 14.8586 2.08931C14.1291 1.71981 13.3229 1.52727 12.5051 1.52727C11.6874 1.52727 10.8812 1.71981 10.1517 2.08931C9.42222 2.45881 8.78999 2.99488 8.30618 3.65413H8.30098Z" fill="white"/>
</g>
<defs>
<clipPath id="clip0_348_23">
<rect width="25" height="25" fill="white" transform="translate(-0.00012207 25) rotate(-90)"/>
</clipPath>
</defs>
</svg>
