<svg width="29" height="33" viewBox="0 0 29 33" fill="none" xmlns="http://www.w3.org/2000/svg">
<path d="M7.43634 9.45904V7.97082C7.43634 4.51878 10.1769 1.1281 13.5838 0.80591C14.5304 0.711673 15.486 0.819302 16.389 1.12187C17.2921 1.42444 18.1227 1.91524 18.8273 2.56269C19.5318 3.21014 20.0948 3.99989 20.48 4.88112C20.8652 5.76235 21.064 6.71553 21.0637 7.67932V9.79657M9.70756 31.4447H18.7924C24.8793 31.4447 25.9695 28.9746 26.2875 25.9675L27.4231 16.762C27.8319 13.0185 26.772 9.96534 20.3066 9.96534H8.19341C1.72801 9.96534 0.668104 13.0185 1.07692 16.762L2.21253 25.9675C2.5305 28.9746 3.62069 31.4447 9.70756 31.4447Z" stroke="black" stroke-width="1.5" stroke-miterlimit="10" stroke-linecap="round" stroke-linejoin="round"/>
<path d="M19.5419 16.1023H19.5571M8.94292 16.1023H8.95503" stroke="black" stroke-width="2" stroke-linecap="round" stroke-linejoin="round"/>
</svg>
