<svg width="25" height="27" viewBox="0 0 25 27" fill="none" xmlns="http://www.w3.org/2000/svg">
<path fill-rule="evenodd" clip-rule="evenodd" d="M12.5 0C5.59688 0 0 6.07165 0 13.5629C0 19.5554 3.58125 24.6392 8.54792 26.4329C9.17292 26.5584 9.40208 26.1391 9.40208 25.7808C9.40208 25.4575 9.39063 24.3895 9.38542 23.2558C5.90833 24.0764 5.17396 21.6554 5.17396 21.6554C4.60521 20.0878 3.78646 19.6707 3.78646 19.6707C2.65208 18.8287 3.87188 18.8468 3.87188 18.8468C5.12708 18.9428 5.7875 20.2449 5.7875 20.2449C6.90208 22.3177 8.71146 21.7187 9.425 21.3717C9.5375 20.4947 9.86146 19.8968 10.2188 19.5577C7.44271 19.2152 4.52396 18.0522 4.52396 12.8554C4.52396 11.3747 5.0125 10.1643 5.8125 9.21485C5.68229 8.87239 5.25417 7.4935 5.93333 5.62521C5.93333 5.62521 6.98333 5.26127 9.37188 7.0154C10.3688 6.71476 11.4375 6.56444 12.5 6.55879C13.5625 6.56444 14.6323 6.71476 15.6313 7.0154C18.0167 5.26014 19.0656 5.62521 19.0656 5.62521C19.7458 7.4935 19.3177 8.87239 19.1885 9.21485C19.9896 10.1643 20.475 11.3747 20.475 12.8554C20.475 18.0646 17.551 19.2118 14.7677 19.5475C15.2156 19.968 15.6156 20.7942 15.6156 22.0589C15.6156 23.8741 15.601 25.3343 15.601 25.7808C15.601 26.1413 15.826 26.5652 16.4594 26.4318C21.424 24.6359 25.001 19.5543 25.001 13.564C25 6.07278 19.4031 0 12.5 0Z" fill="white"/>
<path d="M4.73438 19.4741C4.7073 19.5419 4.60938 19.5623 4.5198 19.5159C4.42917 19.4719 4.37813 19.3792 4.4073 19.3125C4.43438 19.2436 4.5323 19.2243 4.62292 19.2707C4.71355 19.3136 4.76563 19.4063 4.73438 19.4741Z" fill="white"/>
<path d="M5.24063 20.0867C5.18126 20.1466 5.06459 20.1183 4.98542 20.0245C4.90313 19.9296 4.88855 19.803 4.94896 19.7431C5.01042 19.6832 5.12292 19.7114 5.20522 19.8064C5.28751 19.9002 5.30313 20.0257 5.24063 20.0867Z" fill="white"/>
<path d="M5.73333 20.8675C5.65624 20.9252 5.53124 20.8709 5.45416 20.7511C5.37708 20.6302 5.37708 20.4855 5.45624 20.4279C5.53333 20.3702 5.65729 20.4222 5.73541 20.542C5.81145 20.6641 5.81145 20.8087 5.73333 20.8675Z" fill="white"/>
<path d="M6.40833 21.6225C6.33958 21.705 6.19375 21.6824 6.0875 21.5705C5.97812 21.4609 5.94791 21.3061 6.01666 21.2236C6.08646 21.1411 6.23333 21.1648 6.34062 21.2756C6.44896 21.3852 6.48125 21.5412 6.40833 21.6225Z" fill="white"/>
<path d="M7.34063 22.06C7.31042 22.1662 7.16979 22.2148 7.02813 22.1696C6.88646 22.1233 6.79375 21.999 6.82292 21.8916C6.85208 21.7842 6.99375 21.7345 7.13646 21.7831C7.27708 21.8283 7.36979 21.9526 7.34063 22.06Z" fill="white"/>
<path d="M8.36355 22.1415C8.36668 22.2534 8.24688 22.3461 8.09793 22.3483C7.94897 22.3517 7.82709 22.2613 7.82605 22.1517C7.82605 22.0386 7.94376 21.9471 8.09272 21.9437C8.24168 21.9403 8.36355 22.0307 8.36355 22.1415Z" fill="white"/>
<path d="M9.31562 21.9663C9.33333 22.0748 9.2302 22.1878 9.08229 22.2172C8.9375 22.2466 8.80312 22.1788 8.78437 22.0703C8.76666 21.9584 8.87187 21.8465 9.01666 21.8171C9.16354 21.7888 9.29687 21.8544 9.31562 21.9663Z" fill="white"/>
</svg>
