<svg width="25" height="27" viewBox="0 0 25 27" fill="none" xmlns="http://www.w3.org/2000/svg">
<path d="M12.5 2.35082C15.8375 2.35082 16.2333 2.36386 17.551 2.42693C18.9135 2.49217 20.3167 2.81619 21.3094 3.85242C22.3115 4.89844 22.6125 6.34894 22.675 7.77552C22.7354 9.151 22.7479 9.56419 22.7479 13.048C22.7479 16.5318 22.7354 16.945 22.675 18.3205C22.6135 19.7351 22.2958 21.2139 21.3094 22.2436C20.3073 23.2896 18.9188 23.6038 17.551 23.6691C16.2333 23.7321 15.8375 23.7452 12.5 23.7452C9.1625 23.7452 8.76667 23.7321 7.44896 23.6691C6.10417 23.6049 4.66875 23.2657 3.69062 22.2436C2.69375 21.203 2.3875 19.7384 2.325 18.3205C2.26458 16.945 2.25208 16.5318 2.25208 13.048C2.25208 9.56419 2.26458 9.151 2.325 7.77552C2.38646 6.36634 2.70729 4.87887 3.69062 3.85242C4.69062 2.80858 6.08542 2.49217 7.44896 2.42693C8.76667 2.36386 9.1625 2.35082 12.5 2.35082ZM12.5 0C9.10521 0 8.67917 0.0152227 7.34583 0.078288C5.41354 0.170711 3.49479 0.731775 2.09792 2.18989C0.695833 3.65344 0.163542 5.65196 0.075 7.66788C0.0145833 9.05966 0 9.50438 0 13.048C0 16.5916 0.0145833 17.0363 0.075 18.4281C0.163542 20.443 0.703125 22.4513 2.09792 23.9061C3.49896 25.3686 5.41667 25.9253 7.34583 26.0177C8.67917 26.0808 9.10521 26.096 12.5 26.096C15.8948 26.096 16.3208 26.0808 17.6542 26.0177C19.5854 25.9253 21.5062 25.3631 22.9021 23.9061C24.3052 22.4415 24.8365 20.444 24.925 18.4281C24.9854 17.0363 25 16.5916 25 13.048C25 9.50438 24.9854 9.05966 24.925 7.66788C24.8365 5.65087 24.2979 3.64692 22.9021 2.18989C21.5031 0.729601 19.5802 0.169624 17.6542 0.078288C16.3208 0.0152227 15.8948 0 12.5 0Z" fill="white"/>
<path d="M12.5 6.3479C8.95521 6.3479 6.08125 9.34785 6.08125 13.0481C6.08125 16.7482 8.95521 19.7482 12.5 19.7482C16.0448 19.7482 18.9188 16.7482 18.9188 13.0481C18.9188 9.34785 16.0448 6.3479 12.5 6.3479ZM12.5 17.3974C10.199 17.3974 8.33334 15.45 8.33334 13.0481C8.33334 10.6461 10.199 8.69872 12.5 8.69872C14.801 8.69872 16.6667 10.6461 16.6667 13.0481C16.6667 15.45 14.801 17.3974 12.5 17.3974Z" fill="white"/>
<path d="M19.1729 7.64837C20.0013 7.64837 20.6729 6.94735 20.6729 6.08261C20.6729 5.21786 20.0013 4.51685 19.1729 4.51685C18.3445 4.51685 17.6729 5.21786 17.6729 6.08261C17.6729 6.94735 18.3445 7.64837 19.1729 7.64837Z" fill="white"/>
</svg>
