<svg width="25" height="27" viewBox="0 0 25 27" fill="none" xmlns="http://www.w3.org/2000/svg">
<path d="M18.0115 20.7387H14.8792V15.6185C14.8792 14.3974 14.8583 12.8262 13.25 12.8262C11.6188 12.8262 11.3688 14.156 11.3688 15.5304V20.7387H8.2375V10.209H11.2448V11.6475H11.2865C11.9 10.5537 13.0396 9.90019 14.2531 9.94695C17.4281 9.94695 18.0125 12.1271 18.0125 14.9617L18.0115 20.7387ZM4.70313 8.76937C3.69896 8.76937 2.88542 7.92016 2.88542 6.87197C2.88542 5.82378 3.69896 4.97457 4.70313 4.97457C5.70729 4.97457 6.52083 5.82378 6.52083 6.87197C6.52083 7.92016 5.70729 8.76937 4.70313 8.76937ZM6.26875 20.7387H3.13333V10.209H6.26875V20.7387ZM19.5729 1.93874H1.55938C0.708333 1.92895 0.0104167 2.64115 0 3.5295V22.41C0.0104167 23.2994 0.708333 24.0116 1.55938 24.0018H19.5729C20.426 24.0127 21.1271 23.3005 21.1385 22.41V3.52842C21.126 2.63789 20.425 1.92569 19.5729 1.93765" fill="white"/>
</svg>
