<svg xmlns="http://www.w3.org/2000/svg" version="1.1" xmlns:xlink="http://www.w3.org/1999/xlink" xmlns:svgjs="http://svgjs.com/svgjs" width="256" height="256" x="0" y="0" viewBox="0 0 24 24" style="enable-background:new 0 0 512 512" xml:space="preserve"><g><path d="M12,24A12,12,0,1,1,24,12,12.013,12.013,0,0,1,12,24ZM12,2A10,10,0,1,0,22,12,10.011,10.011,0,0,0,12,2Zm5,14a1,1,0,0,0-1-1H8a1,1,0,0,0,0,2h8A1,1,0,0,0,17,16ZM6,10c0,1,.895,1,2,1s2,0,2-1a2,2,0,0,0-4,0Zm8,0c0,1,.895,1,2,1s2,0,2-1a2,2,0,0,0-4,0Z" fill="#ffffff" data-original="#000000"></path></g></svg>