<svg width="32" height="32" viewBox="0 0 32 32" fill="none" xmlns="http://www.w3.org/2000/svg">
<path d="M16 6.21021H31" stroke="black" stroke-width="1.5" stroke-miterlimit="10" stroke-linecap="round" stroke-linejoin="round"/>
<path d="M19.33 0.799316H27.67C30.34 0.799316 31 1.46808 31 4.14311V10.3899C31 13.065 30.34 13.7337 27.67 13.7337H19.33C16.66 13.7337 16 13.065 16 10.3899V4.14311C16 1.46808 16.66 0.799316 19.33 0.799316V0.799316Z" stroke="black" stroke-width="1.5" stroke-linecap="round" stroke-linejoin="round"/>
<path d="M1 23.6891H16" stroke="black" stroke-width="1.5" stroke-miterlimit="10" stroke-linecap="round" stroke-linejoin="round"/>
<path d="M31 20.5581C31 26.4402 26.305 31.1975 20.5 31.1975L22.075 28.5376M1 11.4387C1 5.55663 5.695 0.799316 11.5 0.799316L9.925 3.45916M4.33 18.2783H12.67C15.34 18.2783 16 18.947 16 21.6221V27.8689C16 30.5439 15.34 31.2127 12.67 31.2127H4.33C1.66 31.2127 1 30.5439 1 27.8689V21.6221C1 18.947 1.66 18.2783 4.33 18.2783Z" stroke="black" stroke-width="1.5" stroke-linecap="round" stroke-linejoin="round"/>
</svg>
