<svg width="25" height="25" viewBox="0 0 25 25" fill="none" xmlns="http://www.w3.org/2000/svg">
<g clip-path="url(#clip0_184_122)">
<path fill-rule="evenodd" clip-rule="evenodd" d="M21.3156 3.63333C18.976 1.29167 15.8656 0.00104167 12.5521 0C5.72396 0 0.166664 5.55625 0.163539 12.3875C0.162497 14.5708 0.73333 16.7021 1.81771 18.5812L0.0593719 25L6.62604 23.2771C8.43541 24.2646 10.4729 24.7844 12.5458 24.7854H12.551C19.3781 24.7854 24.9365 19.2281 24.9396 12.3969C24.9417 9.0875 23.6542 5.97396 21.3156 3.63333ZM12.5521 22.6927H12.5479C10.7 22.6927 8.88854 22.1958 7.30729 21.2573L6.93125 21.0344L3.03437 22.0562L4.075 18.2562L3.83021 17.8667C2.79896 16.2271 2.25521 14.3323 2.25625 12.3875C2.25833 6.71042 6.87812 2.09167 12.5573 2.09167C15.3073 2.09167 17.8927 3.16458 19.8365 5.11042C21.7802 7.05729 22.85 9.64375 22.849 12.3948C22.8458 18.074 18.2271 22.6927 12.5521 22.6927ZM18.2 14.9812C17.8906 14.826 16.3687 14.0771 16.0844 13.974C15.801 13.8708 15.5948 13.8187 15.3875 14.1281C15.1802 14.4375 14.5885 15.1354 14.4073 15.3427C14.2271 15.549 14.0458 15.575 13.7365 15.4198C13.4271 15.2646 12.4292 14.9385 11.2469 13.8833C10.3271 13.0625 9.7052 12.049 9.525 11.7385C9.34479 11.4281 9.50625 11.2615 9.66041 11.1073C9.8 10.9688 9.96979 10.7458 10.125 10.5646C10.2812 10.3854 10.3323 10.2563 10.4365 10.049C10.5396 9.84271 10.4885 9.66146 10.4104 9.50625C10.3323 9.35208 9.71354 7.82812 9.45625 7.20833C9.2052 6.60417 8.95 6.68646 8.75937 6.67708C8.57916 6.66771 8.37291 6.66667 8.16562 6.66667C7.95937 6.66667 7.62395 6.74375 7.34062 7.05417C7.05729 7.36458 6.25729 8.11354 6.25729 9.63646C6.25729 11.1604 7.36666 12.6323 7.52083 12.8385C7.675 13.0448 9.70312 16.1719 12.8083 17.5125C13.5469 17.8312 14.124 18.0219 14.5729 18.1646C15.3146 18.4 15.9896 18.3667 16.5229 18.2875C17.1177 18.199 18.3542 17.5385 18.6125 16.8156C18.8708 16.0927 18.8708 15.4719 18.7927 15.3437C18.7156 15.2135 18.5094 15.1365 18.2 14.9812Z" fill="white"/>
</g>
<defs>
<clipPath id="clip0_184_122">
<rect width="25" height="25" fill="white"/>
</clipPath>
</defs>
</svg>
