<svg width="25" height="25" viewBox="0 0 25 25" fill="none" xmlns="http://www.w3.org/2000/svg">
<g clip-path="url(#clip0_230_60)">
<path d="M20.1385 15.2781C19.351 15.2788 18.5753 15.4711 17.8786 15.8384C17.182 16.2057 16.5851 16.737 16.1396 17.3865L9.35938 14.325C9.84095 13.1621 9.84282 11.8559 9.36458 10.6917L16.1354 7.6146C16.7957 8.56955 17.7764 9.25622 18.8996 9.55006C20.0228 9.8439 21.2141 9.72544 22.2574 9.21616C23.3008 8.70689 24.127 7.84053 24.5863 6.77425C25.0456 5.70797 25.1075 4.51238 24.7608 3.40436C24.4141 2.29634 23.6817 1.34928 22.6966 0.734967C21.7114 0.120653 20.5387 -0.120223 19.3912 0.0560304C18.2437 0.232284 17.1973 0.813994 16.4419 1.69564C15.6865 2.57729 15.2722 3.70048 15.274 4.86147C15.2784 5.13626 15.3063 5.41018 15.3573 5.68022L8.15938 8.95106C7.46806 8.30337 6.60261 7.87172 5.66935 7.70914C4.73608 7.54656 3.77566 7.66014 2.90605 8.03591C2.03645 8.41168 1.29555 9.03328 0.774372 9.82435C0.253196 10.6154 -0.0255558 11.5415 -0.0276372 12.4888C-0.0297186 13.4361 0.244961 14.3634 0.762656 15.1568C1.28035 15.9501 2.01851 16.575 2.88646 16.9546C3.7544 17.3342 4.71432 17.452 5.64829 17.2935C6.58226 17.135 7.4496 16.7072 8.14375 16.0625L15.3604 19.3208C15.3103 19.5907 15.2828 19.8642 15.2781 20.1386C15.2779 21.1002 15.5629 22.0402 16.097 22.8398C16.6311 23.6395 17.3903 24.2627 18.2787 24.6308C19.1671 24.9989 20.1446 25.0952 21.0878 24.9077C22.0309 24.7201 22.8972 24.2571 23.5772 23.5772C24.2571 22.8972 24.7201 22.0309 24.9077 21.0878C25.0952 20.1446 24.9989 19.1671 24.6308 18.2787C24.2627 17.3904 23.6394 16.6311 22.8398 16.097C22.0402 15.5629 21.1001 15.2779 20.1385 15.2781ZM20.1385 2.08335C20.688 2.08314 21.2253 2.2459 21.6823 2.55104C22.1393 2.85618 22.4955 3.28999 22.7059 3.79761C22.9164 4.30523 22.9715 4.86385 22.8645 5.40282C22.7574 5.94179 22.4929 6.4369 22.1044 6.82553C21.7159 7.21417 21.2209 7.47886 20.682 7.58614C20.143 7.69342 19.5844 7.63846 19.0767 7.42822C18.569 7.21799 18.135 6.86191 17.8297 6.40502C17.5244 5.94814 17.3615 5.41098 17.3615 4.86147C17.362 4.12502 17.6547 3.41887 18.1754 2.89802C18.696 2.37717 19.4021 2.08417 20.1385 2.08335ZM4.86146 15.2781C4.31195 15.2783 3.77473 15.1156 3.31773 14.8104C2.86073 14.5053 2.50449 14.0715 2.29406 13.5639C2.08363 13.0563 2.02847 12.4976 2.13555 11.9587C2.24262 11.4197 2.50713 10.9246 2.89562 10.536C3.2841 10.1473 3.77912 9.88263 4.31805 9.77535C4.85698 9.66807 5.41562 9.72302 5.92332 9.93326C6.43102 10.1435 6.86496 10.4996 7.17027 10.9565C7.47558 11.4133 7.63854 11.9505 7.63854 12.5C7.63772 13.2364 7.3449 13.9424 6.8243 14.4632C6.30371 14.984 5.59783 15.277 4.86146 15.2781ZM20.1385 22.9167C19.5891 22.9167 19.052 22.7537 18.5951 22.4485C18.1382 22.1432 17.7822 21.7093 17.5719 21.2017C17.3616 20.6941 17.3066 20.1355 17.4138 19.5966C17.521 19.0577 17.7856 18.5627 18.1741 18.1741C18.5626 17.7856 19.0577 17.521 19.5966 17.4138C20.1355 17.3066 20.694 17.3616 21.2017 17.5719C21.7093 17.7822 22.1432 18.1383 22.4485 18.5951C22.7537 19.052 22.9167 19.5891 22.9167 20.1386C22.9161 20.8752 22.6232 21.5815 22.1024 22.1024C21.5815 22.6233 20.8752 22.9161 20.1385 22.9167Z" fill="white"/>
</g>
<defs>
<clipPath id="clip0_230_60">
<rect width="25" height="25" fill="white"/>
</clipPath>
</defs>
</svg>
