<svg width="25" height="25" viewBox="0 0 25 25" fill="none" xmlns="http://www.w3.org/2000/svg">
<path d="M12.5 2.25208C15.8375 2.25208 16.2333 2.26458 17.551 2.325C18.9135 2.3875 20.3167 2.69792 21.3094 3.69062C22.3115 4.69271 22.6125 6.08229 22.675 7.44896C22.7354 8.76667 22.7479 9.1625 22.7479 12.5C22.7479 15.8375 22.7354 16.2333 22.675 17.551C22.6135 18.9062 22.2958 20.3229 21.3094 21.3094C20.3073 22.3115 18.9188 22.6125 17.551 22.675C16.2333 22.7354 15.8375 22.7479 12.5 22.7479C9.1625 22.7479 8.76667 22.7354 7.44896 22.675C6.10417 22.6135 4.66875 22.2885 3.69062 21.3094C2.69375 20.3125 2.3875 18.9094 2.325 17.551C2.26458 16.2333 2.25208 15.8375 2.25208 12.5C2.25208 9.1625 2.26458 8.76667 2.325 7.44896C2.38646 6.09896 2.70729 4.67396 3.69062 3.69062C4.69062 2.69062 6.08542 2.3875 7.44896 2.325C8.76667 2.26458 9.1625 2.25208 12.5 2.25208ZM12.5 0C9.10521 0 8.67917 0.0145833 7.34583 0.075C5.41354 0.163542 3.49479 0.701042 2.09792 2.09792C0.695833 3.5 0.163542 5.41458 0.075 7.34583C0.0145833 8.67917 0 9.10521 0 12.5C0 15.8948 0.0145833 16.3208 0.075 17.6542C0.163542 19.5844 0.703125 21.5083 2.09792 22.9021C3.49896 24.3031 5.41667 24.8365 7.34583 24.925C8.67917 24.9854 9.10521 25 12.5 25C15.8948 25 16.3208 24.9854 17.6542 24.925C19.5854 24.8365 21.5062 24.2979 22.9021 22.9021C24.3052 21.499 24.8365 19.5854 24.925 17.6542C24.9854 16.3208 25 15.8948 25 12.5C25 9.10521 24.9854 8.67917 24.925 7.34583C24.8365 5.41354 24.2979 3.49375 22.9021 2.09792C21.5031 0.698958 19.5802 0.1625 17.6542 0.075C16.3208 0.0145833 15.8948 0 12.5 0Z" fill="black"/>
<path d="M12.5 6.08124C8.95521 6.08124 6.08125 8.9552 6.08125 12.5C6.08125 16.0448 8.95521 18.9187 12.5 18.9187C16.0448 18.9187 18.9188 16.0448 18.9188 12.5C18.9188 8.9552 16.0448 6.08124 12.5 6.08124ZM12.5 16.6667C10.199 16.6667 8.33334 14.801 8.33334 12.5C8.33334 10.1989 10.199 8.33332 12.5 8.33332C14.801 8.33332 16.6667 10.1989 16.6667 12.5C16.6667 14.801 14.801 16.6667 12.5 16.6667Z" fill="black"/>
<path d="M19.1729 7.32709C20.0013 7.32709 20.6729 6.65551 20.6729 5.82709C20.6729 4.99866 20.0013 4.32709 19.1729 4.32709C18.3445 4.32709 17.6729 4.99866 17.6729 5.82709C17.6729 6.65551 18.3445 7.32709 19.1729 7.32709Z" fill="black"/>
</svg>
