<svg width="25" height="21" viewBox="0 0 25 21" fill="none" xmlns="http://www.w3.org/2000/svg">
<path d="M22.4406 5.39999C22.4552 5.61978 22.4552 5.84061 22.4552 6.06249C22.4552 12.8406 17.2948 20.6562 7.86146 20.6562V20.6521C5.075 20.6562 2.34583 19.8583 0 18.3531C0.405208 18.4021 0.8125 18.426 1.22083 18.4271C3.53125 18.4292 5.775 17.6542 7.59062 16.2271C5.39583 16.1854 3.47083 14.7542 2.79896 12.6646C3.56771 12.8125 4.35937 12.7823 5.11458 12.5771C2.72083 12.0937 1 9.99061 1 7.54895C1 7.52707 1 7.5052 1 7.48436C1.71354 7.88228 2.51146 8.10207 3.32812 8.12603C1.07396 6.62082 0.378125 3.62291 1.73958 1.27916C4.34375 4.48332 8.18646 6.43124 12.3104 6.63853C11.8969 4.85728 12.4625 2.99061 13.7937 1.73749C15.8594 -0.20522 19.1083 -0.10522 21.051 1.96041C22.2 1.73436 23.301 1.31249 24.3083 0.715614C23.925 1.90311 23.124 2.91145 22.0531 3.55311C23.0708 3.43124 24.0635 3.15936 25 2.74478C24.3115 3.77499 23.4448 4.67395 22.4406 5.39999Z" fill="black"/>
</svg>
