<svg width="25" height="19" viewBox="0 0 25 19" fill="none" xmlns="http://www.w3.org/2000/svg">
<path d="M24.4771 3.44376C24.1896 2.36146 23.3427 1.50834 22.2667 1.21876C20.3177 0.693756 12.5 0.693756 12.5 0.693756C12.5 0.693756 4.68229 0.693756 2.73229 1.21876C1.65729 1.50834 0.810417 2.36042 0.522917 3.44376C0 5.40626 0 9.50001 0 9.50001C0 9.50001 0 13.5938 0.522917 15.5563C0.810417 16.6385 1.65729 17.4917 2.73333 17.7813C4.68229 18.3063 12.5 18.3063 12.5 18.3063C12.5 18.3063 20.3177 18.3063 22.2677 17.7813C23.3427 17.4917 24.1896 16.6396 24.4781 15.5563C25 13.5938 25 9.50001 25 9.50001C25 9.50001 25 5.40626 24.4771 3.44376ZM9.94375 13.2177V5.7823L16.4771 9.50001L9.94375 13.2177Z" fill="black"/>
</svg>
