<svg width="335" height="146" viewBox="0 0 335 146" fill="none" xmlns="http://www.w3.org/2000/svg">
<path d="M23.7735 140L18 134.227L12.2265 140L18 145.773L23.7735 140ZM335 0H206V2H335V0ZM186 65H2.00001V67H186V65ZM-9 76V130H-7V76H-9ZM2 141H18V139H2V141ZM195 11V33.5H197V11H195ZM195 33.5V56H197V33.5H195ZM-9 130C-9 136.075 -4.07513 141 2 141V139C-2.97056 139 -7 134.971 -7 130H-9ZM2.00001 65C-4.07513 65 -9 69.9249 -9 76H-7C-7 71.0294 -2.97056 67 2.00001 67V65ZM186 67C192.075 67 197 62.0751 197 56H195C195 60.9706 190.971 65 186 65V67ZM206 0C199.925 0 195 4.92487 195 11H197C197 6.02944 201.029 2 206 2V0Z" fill="black"/>
</svg>
