<svg width="241" height="52" viewBox="0 0 241 52" fill="none" xmlns="http://www.w3.org/2000/svg">
<path d="M231.774 13L226 7.2265L220.227 13L226 18.7735L231.774 13ZM0.226497 39L6 44.7735L11.7735 39L6 33.2265L0.226497 39ZM226 12H130.177V14H226V12ZM119.177 23V29H121.177V23H119.177ZM25.4937 38H6V40H25.4937V38ZM110.177 38H77.0127V40H110.177V38ZM77.0127 38H25.4937V40H77.0127V38ZM119.177 29C119.177 33.9706 115.148 38 110.177 38V40C116.252 40 121.177 35.0751 121.177 29H119.177ZM130.177 12C124.102 12 119.177 16.9249 119.177 23H121.177C121.177 18.0294 125.207 14 130.177 14V12Z" fill="black"/>
<path d="M34.326 36.14C33.5513 36.14 32.842 36.0047 32.198 35.734C31.554 35.454 31.0173 35.0807 30.588 34.614L31.442 33.718C31.8527 34.1473 32.296 34.4647 32.772 34.67C33.248 34.866 33.7753 34.964 34.354 34.964C34.9513 34.964 35.404 34.8473 35.712 34.614C36.0293 34.3807 36.188 34.0587 36.188 33.648C36.188 33.34 36.1273 33.088 36.006 32.892C35.8847 32.696 35.6607 32.5093 35.334 32.332C35.0073 32.1547 34.508 31.9447 33.836 31.702C32.7813 31.3193 32.016 30.8947 31.54 30.428C31.0733 29.9613 30.84 29.3687 30.84 28.65C30.84 27.838 31.134 27.2033 31.722 26.746C32.31 26.2887 33.108 26.06 34.116 26.06C34.7413 26.06 35.3293 26.158 35.88 26.354C36.4307 26.55 36.9113 26.816 37.322 27.152L36.58 28.132C36.1973 27.824 35.8193 27.6 35.446 27.46C35.0727 27.32 34.6293 27.25 34.116 27.25C32.9027 27.25 32.296 27.712 32.296 28.636C32.296 28.944 32.3707 29.2053 32.52 29.42C32.6787 29.6253 32.9167 29.8167 33.234 29.994C33.5607 30.162 34.032 30.358 34.648 30.582C35.3947 30.862 35.9827 31.1373 36.412 31.408C36.8413 31.6787 37.154 31.9913 37.35 32.346C37.546 32.7007 37.644 33.1347 37.644 33.648C37.644 34.4227 37.35 35.034 36.762 35.482C36.174 35.9207 35.362 36.14 34.326 36.14ZM41.5205 27.432H38.7205V26.2H45.7485V27.432H42.9485V36H41.5205V27.432ZM48.4402 26.648C48.5242 26.4053 48.6362 26.228 48.7762 26.116C48.9255 26.004 49.1075 25.948 49.3222 25.948C49.5929 25.948 49.8029 26.0087 49.9522 26.13C50.1109 26.242 50.1902 26.3867 50.1902 26.564C50.1902 26.6013 50.1669 26.6807 50.1202 26.802L53.4662 36H51.9682L51.0442 33.354H47.4462L46.5222 36H45.0242L48.4402 26.648ZM50.7222 32.206L49.2662 27.922L47.8102 32.206H50.7222ZM54.9461 27.488C54.9461 27.3667 54.9275 27.2733 54.8901 27.208C54.8528 27.1333 54.8015 27.0633 54.7361 26.998C54.6801 26.942 54.6381 26.8953 54.6101 26.858C54.5915 26.8207 54.5821 26.7693 54.5821 26.704C54.5821 26.5267 54.6568 26.3587 54.8061 26.2C54.9648 26.032 55.1468 25.948 55.3521 25.948C55.5388 25.948 55.7255 26.032 55.9121 26.2H57.8581C59.0995 26.2 60.0515 26.4473 60.7141 26.942C61.3768 27.4367 61.7081 28.1927 61.7081 29.21C61.7081 30.0687 61.4608 30.7407 60.9661 31.226C60.4715 31.7113 59.7948 31.996 58.9361 32.08L61.4981 36H59.8601L57.3821 32.192H56.3741V36H54.9461V27.488ZM57.9001 30.974C58.7028 30.974 59.2955 30.8387 59.6781 30.568C60.0608 30.288 60.2521 29.8353 60.2521 29.21C60.2521 28.594 60.0561 28.146 59.6641 27.866C59.2815 27.5767 58.6888 27.432 57.8861 27.432H56.3741V30.974H57.9001ZM70.2147 36.14C69.44 36.14 68.7307 36.0047 68.0867 35.734C67.4427 35.454 66.906 35.0807 66.4767 34.614L67.3307 33.718C67.7413 34.1473 68.1847 34.4647 68.6607 34.67C69.1367 34.866 69.664 34.964 70.2427 34.964C70.84 34.964 71.2927 34.8473 71.6007 34.614C71.918 34.3807 72.0767 34.0587 72.0767 33.648C72.0767 33.34 72.016 33.088 71.8947 32.892C71.7733 32.696 71.5493 32.5093 71.2227 32.332C70.896 32.1547 70.3967 31.9447 69.7247 31.702C68.67 31.3193 67.9047 30.8947 67.4287 30.428C66.962 29.9613 66.7287 29.3687 66.7287 28.65C66.7287 27.838 67.0227 27.2033 67.6107 26.746C68.1987 26.2887 68.9967 26.06 70.0047 26.06C70.63 26.06 71.218 26.158 71.7687 26.354C72.3193 26.55 72.8 26.816 73.2107 27.152L72.4687 28.132C72.086 27.824 71.708 27.6 71.3347 27.46C70.9613 27.32 70.518 27.25 70.0047 27.25C68.7913 27.25 68.1847 27.712 68.1847 28.636C68.1847 28.944 68.2593 29.2053 68.4087 29.42C68.5673 29.6253 68.8053 29.8167 69.1227 29.994C69.4493 30.162 69.9207 30.358 70.5367 30.582C71.2833 30.862 71.8713 31.1373 72.3007 31.408C72.73 31.6787 73.0427 31.9913 73.2387 32.346C73.4347 32.7007 73.5327 33.1347 73.5327 33.648C73.5327 34.4227 73.2387 35.034 72.6507 35.482C72.0627 35.9207 71.2507 36.14 70.2147 36.14ZM78.8371 36.14C77.5118 36.14 76.4898 35.692 75.7711 34.796C75.0618 33.8907 74.7071 32.6587 74.7071 31.1C74.7071 29.5413 75.0618 28.314 75.7711 27.418C76.4898 26.5127 77.5118 26.06 78.8371 26.06C79.7145 26.06 80.4611 26.2653 81.0771 26.676C81.7025 27.0867 82.1738 27.6747 82.4911 28.44C82.8085 29.196 82.9671 30.0827 82.9671 31.1C82.9671 32.1173 82.8085 33.0087 82.4911 33.774C82.1738 34.53 81.7025 35.1133 81.0771 35.524C80.4611 35.9347 79.7145 36.14 78.8371 36.14ZM78.8371 34.95C79.7331 34.95 80.4005 34.6047 80.8391 33.914C81.2871 33.2233 81.5111 32.2853 81.5111 31.1C81.5111 29.9147 81.2871 28.9767 80.8391 28.286C80.4005 27.5953 79.7331 27.25 78.8371 27.25C77.9411 27.25 77.2691 27.5953 76.8211 28.286C76.3825 28.9673 76.1631 29.9053 76.1631 31.1C76.1631 32.2947 76.3825 33.2373 76.8211 33.928C77.2691 34.6093 77.9411 34.95 78.8371 34.95ZM88.6771 36.14C87.7344 36.14 86.9224 35.9347 86.2411 35.524C85.5597 35.1133 85.0371 34.53 84.6731 33.774C84.3091 33.0087 84.1271 32.1127 84.1271 31.086C84.1271 30.0687 84.3044 29.182 84.6591 28.426C85.0137 27.67 85.5224 27.0867 86.1851 26.676C86.8571 26.2653 87.6504 26.06 88.5651 26.06C89.1624 26.06 89.7177 26.1627 90.2311 26.368C90.7537 26.5733 91.1831 26.858 91.5191 27.222L90.9311 28.23C90.6137 27.9033 90.2731 27.6607 89.9091 27.502C89.5451 27.334 89.0971 27.25 88.5651 27.25C87.6224 27.25 86.8897 27.5907 86.3671 28.272C85.8444 28.9533 85.5831 29.8913 85.5831 31.086C85.5831 32.29 85.8537 33.2373 86.3951 33.928C86.9457 34.6093 87.7157 34.95 88.7051 34.95C89.6291 34.95 90.3711 34.6373 90.9311 34.012L91.7991 34.824C91.4351 35.244 90.9731 35.5707 90.4131 35.804C89.8624 36.028 89.2837 36.14 88.6771 36.14ZM93.7148 26.2H95.1428V36H93.7148V26.2ZM100.421 26.648C100.505 26.4053 100.617 26.228 100.757 26.116C100.906 26.004 101.088 25.948 101.303 25.948C101.573 25.948 101.783 26.0087 101.933 26.13C102.091 26.242 102.171 26.3867 102.171 26.564C102.171 26.6013 102.147 26.6807 102.101 26.802L105.447 36H103.949L103.025 33.354H99.4267L98.5027 36H97.0047L100.421 26.648ZM102.703 32.206L101.247 27.922L99.7907 32.206H102.703ZM107.277 36.14C107.109 36.14 106.955 36.0747 106.815 35.944C106.684 35.8133 106.6 35.664 106.563 35.496C106.544 35.4307 106.544 35.3793 106.563 35.342C106.581 35.2953 106.619 35.244 106.675 35.188C106.759 35.0947 106.819 35.006 106.857 34.922C106.903 34.838 106.927 34.7167 106.927 34.558V26.2H108.355V34.768H112.583V36H107.739C107.636 36.0933 107.482 36.14 107.277 36.14Z" fill="black"/>
</svg>
