<svg width="826" height="54" viewBox="0 0 826 54" fill="none" xmlns="http://www.w3.org/2000/svg">
<path d="M739.829 26H812C819.732 26 826 32.268 826 40C826 47.732 819.732 54 812 54H21C9.40202 54 0 44.598 0 33C0 21.402 9.40202 12 21 12H48.8597C52.2771 12 55.6851 12.3585 59.0278 13.0697L138.639 30.0084C144.824 31.3242 151.201 31.4551 157.435 30.3941L326.997 1.53234C332.95 0.519161 339.037 0.592522 344.963 1.74887L488.891 29.8323C496.204 31.2594 503.745 31.0336 510.96 29.1716L612.033 3.08833C619.893 1.05997 628.128 0.975751 636.028 2.84296L728.328 24.6592C732.096 25.5501 735.956 26 739.829 26Z" fill="black"/>
</svg>
