<svg width="25" height="24" viewBox="0 0 25 24" fill="none" xmlns="http://www.w3.org/2000/svg">
<path d="M17.9688 0.928131C16.9003 0.938467 15.8492 1.1989 14.8995 1.68857C13.9498 2.17823 13.1281 2.88352 12.5 3.74792C11.8719 2.88352 11.0502 2.17823 10.1005 1.68857C9.15083 1.1989 8.09968 0.938467 7.03125 0.928131C5.09559 1.00543 3.26929 1.84603 1.95168 3.26611C0.634077 4.6862 -0.0676294 6.57024 1.22935e-06 8.50626C1.22935e-06 13.2479 4.86875 18.324 8.95833 21.7479C9.95139 22.5829 11.2072 23.0408 12.5047 23.0408C13.8021 23.0408 15.058 22.5829 16.051 21.7479C20.1365 18.324 25.0094 13.2479 25.0094 8.50626C25.077 6.56868 24.374 4.68327 23.0544 3.26291C21.7348 1.84256 19.9061 1.00301 17.9688 0.928131ZM14.0385 19.3531C13.6077 19.7159 13.0627 19.9148 12.4995 19.9148C11.9363 19.9148 11.3912 19.7159 10.9604 19.3531C5.98125 15.1781 3.125 11.225 3.125 8.50626C3.05859 7.39919 3.43154 6.31061 4.1629 5.47686C4.89425 4.64312 5.92497 4.13152 7.03125 4.05313C8.13754 4.13152 9.16825 4.64312 9.8996 5.47686C10.631 6.31061 11.0039 7.39919 10.9375 8.50626C10.9375 8.92066 11.1021 9.31809 11.3951 9.61111C11.6882 9.90414 12.0856 10.0688 12.5 10.0688C12.9144 10.0688 13.3118 9.90414 13.6049 9.61111C13.8979 9.31809 14.0625 8.92066 14.0625 8.50626C13.9961 7.39919 14.369 6.31061 15.1004 5.47686C15.8318 4.64312 16.8625 4.13152 17.9688 4.05313C19.075 4.13152 20.1057 4.64312 20.8371 5.47686C21.5685 6.31061 21.9414 7.39919 21.875 8.50626C21.875 11.225 19.0188 15.1781 14.0385 19.3531Z" fill="black"/>
</svg>
