<svg width="198" height="225" viewBox="0 0 198 225" fill="none" xmlns="http://www.w3.org/2000/svg">
<path fill-rule="evenodd" clip-rule="evenodd" d="M163.554 0H153.245L198 50.8582V39.1423L163.554 0ZM198 10.8582L188.445 0H198V10.8582ZM198 79.142L128.354 0H118.045L198 90.858V79.142ZM198 119.142L93.1542 0H82.845L198 130.858V119.142ZM198 159.142L57.9542 0H47.6446L198 170.858V159.142ZM198 199.142L22.7545 0H12.4446L198 210.858V199.142ZM185.554 225L0 14.1423V25.8582L175.245 225H185.554ZM150.354 225L0 54.1423V65.858L140.045 225H150.354ZM115.154 225L0 94.142V105.858L104.845 225H115.154ZM79.9542 225L0 134.142V145.858L69.645 225H79.9542ZM44.7545 225L0 174.142V185.858L34.4446 225H44.7545ZM9.55451 225L0 214.142V225H9.55451Z" fill="black"/>
</svg>
