<svg width="25" height="25" viewBox="0 0 25 25" fill="none" xmlns="http://www.w3.org/2000/svg">
<g clip-path="url(#clip0_230_58)">
<path d="M20.976 25C20.5907 24.9989 20.2094 24.9215 19.8541 24.7722C19.4988 24.6229 19.1767 24.4047 18.9062 24.1302L12.5 17.7615L6.09375 24.1344C5.68232 24.5518 5.15467 24.8356 4.5796 24.9487C4.00452 25.0619 3.40869 24.9992 2.86979 24.7688C2.32553 24.5498 1.85994 24.1719 1.53381 23.6843C1.20767 23.1967 1.03616 22.622 1.04166 22.0354V5.20833C1.04166 3.827 1.5904 2.50224 2.56715 1.52549C3.5439 0.548734 4.86866 0 6.25 0L18.75 0C19.434 0 20.1112 0.134718 20.7431 0.396461C21.375 0.658204 21.9492 1.04185 22.4328 1.52549C22.9165 2.00912 23.3001 2.58329 23.5619 3.21519C23.8236 3.8471 23.9583 4.52437 23.9583 5.20833V22.0354C23.9642 22.6215 23.7933 23.1958 23.4679 23.6834C23.1426 24.171 22.6778 24.5492 22.1344 24.7688C21.7675 24.9222 21.3737 25.0008 20.976 25ZM6.25 2.08333C5.42119 2.08333 4.62634 2.41257 4.04029 2.99863C3.45424 3.58468 3.125 4.37953 3.125 5.20833V22.0354C3.12462 22.209 3.17569 22.3788 3.27177 22.5234C3.36784 22.6679 3.5046 22.7808 3.66478 22.8476C3.82495 22.9145 4.00136 22.9324 4.17171 22.8991C4.34205 22.8658 4.4987 22.7827 4.62187 22.6604L11.7708 15.5552C11.966 15.3612 12.23 15.2523 12.5052 15.2523C12.7804 15.2523 13.0444 15.3612 13.2396 15.5552L20.3802 22.6583C20.5034 22.7806 20.66 22.8637 20.8304 22.897C21.0007 22.9304 21.1771 22.9124 21.3373 22.8456C21.4975 22.7787 21.6342 22.6658 21.7303 22.5213C21.8264 22.3767 21.8775 22.2069 21.8771 22.0333V5.20833C21.8771 4.37953 21.5478 3.58468 20.9618 2.99863C20.3757 2.41257 19.5809 2.08333 18.7521 2.08333H6.25Z" fill="white"/>
</g>
<defs>
<clipPath id="clip0_230_58">
<rect width="25" height="25" fill="white"/>
</clipPath>
</defs>
</svg>
