<svg width="1758" height="104" viewBox="0 0 1758 104" fill="none" xmlns="http://www.w3.org/2000/svg">
<path id="waves layout" d="M40.7483 4.11607L169.859 51.6471C180.462 55.5505 191.852 56.8293 203.057 55.3742L374.786 33.0732C383.517 31.9393 392.383 32.4628 400.921 34.6161L479.521 54.4416C487.771 56.5226 496.332 57.082 504.783 56.0923L596.807 45.3155C601.59 44.7555 606.417 44.6903 611.213 45.1212L688.182 52.0358C728.058 55.6181 767.893 44.7374 800.41 21.3806C816.391 9.90208 837.061 7.1982 855.457 14.18L916.628 37.3972C928.815 42.0225 942.051 43.1533 954.845 40.6622L1053.7 21.4141C1064.42 19.3277 1075.47 19.7766 1085.99 22.7249L1200.18 54.7552C1218.16 59.7975 1237.41 57.4492 1253.64 48.2323L1270.07 38.9078C1279.24 33.7032 1289.46 30.6369 1299.98 29.9378L1470.36 18.6162C1474.11 18.3665 1477.88 18.4204 1481.63 18.7773L1595.7 29.6381C1605.13 30.5367 1614.66 29.5091 1623.68 26.6176L1703.67 1C1731.94 -4.20283 1758 17.5013 1758 46.2437V52.6563C1758 81.0126 1735.01 104 1706.66 104H1703.67L40.7483 89C18.2437 89 0 70.7564 0 48.2517V44.8644C0 22.3597 18.2437 4.11607 40.7483 4.11607Z" fill="red"/>
</svg>
