<svg width="855" height="110" viewBox="0 0 855 110" fill="none" xmlns="http://www.w3.org/2000/svg">
<path id="waves layout" d="M101 37.3571L51.9775 20.2363C35.9274 14.6309 18.3571 22.998 12.5927 38.9917L1.96136 68.4889C-5.32031 88.6923 9.64946 110 31.125 110H823.77C842.456 110 856.895 93.5906 854.518 75.056L849.688 37.397C848.61 28.9948 844.141 21.3996 837.319 16.3771L823.651 6.31404C815.698 0.459121 805.432 -1.25663 796.008 1.6942L724 24.2411L664.083 42.9101C658.791 44.5589 654.038 47.5963 650.319 51.7059L645.09 57.4838C638.719 64.5248 629.471 68.257 619.997 67.6111L561 63.5893L416.579 38.9888C410.342 37.9265 403.931 38.7975 398.204 41.4849L329.992 73.4944C324.144 76.2389 317.584 77.0877 311.23 75.922L248.992 64.5051C245.686 63.8986 242.303 63.8338 238.976 64.3133L215.621 67.6797C211.257 68.3086 206.81 67.9996 202.575 66.7732L101 37.3571Z" fill="#1E1E1E"/>
</svg>
