<svg id="visual" class="wave" viewBox="0 0 900 200" width="900" height="200" xmlns="http://www.w3.org/2000/svg" xmlns:xlink="http://www.w3.org/1999/xlink" version="1.1"><rect x="0" y="0" width="900" height="200" fill="#FFFFFF"></rect><path d="M0 131L18.8 135C37.7 139 75.3 147 112.8 156.8C150.3 166.7 187.7 178.3 225.2 176.8C262.7 175.3 300.3 160.7 337.8 161.7C375.3 162.7 412.7 179.3 450.2 172.3C487.7 165.3 525.3 134.7 562.8 123.2C600.3 111.7 637.7 119.3 675.2 134.3C712.7 149.3 750.3 171.7 787.8 171.7C825.3 171.7 862.7 149.3 881.3 138.2L900 127L900 201L881.3 201C862.7 201 825.3 201 787.8 201C750.3 201 712.7 201 675.2 201C637.7 201 600.3 201 562.8 201C525.3 201 487.7 201 450.2 201C412.7 201 375.3 201 337.8 201C300.3 201 262.7 201 225.2 201C187.7 201 150.3 201 112.8 201C75.3 201 37.7 201 18.8 201L0 201Z" fill="#000000" stroke-linecap="round" stroke-linejoin="miter"></path></svg>