<svg width="792" height="110" viewBox="0 0 792 110" fill="none" xmlns="http://www.w3.org/2000/svg">
<path id="waves layout" d="M67 37.3571L19.7673 20.8614C3.02951 15.0158 -15.1926 24.3729 -20.1946 41.3818L-26.4248 62.5676C-32.2296 82.3064 -17.5478 102.12 3.02595 102.312L789.437 109.667C808.24 109.843 822.868 93.3749 820.475 74.7248L815.688 37.397C814.61 28.9948 810.141 21.3996 803.319 16.3771L789.651 6.31404C781.698 0.459121 771.432 -1.25663 762.008 1.6942L690 24.2411L630.083 42.9101C624.791 44.5589 620.038 47.5963 616.319 51.7059L611.09 57.4838C604.719 64.5248 595.471 68.257 585.997 67.6111L527 63.5893L382.579 38.9888C376.342 37.9265 369.931 38.7975 364.204 41.4849L295.992 73.4944C290.144 76.2389 283.584 77.0877 277.23 75.922L214.992 64.5051C211.686 63.8986 208.303 63.8338 204.976 64.3133L181.621 67.6797C177.257 68.3086 172.81 67.9996 168.575 66.7732L67 37.3571Z" fill="#1E1E1E"/>
</svg>
